<svg width="16" height="16" viewBox="0 0 16 16" fill="none" xmlns="http://www.w3.org/2000/svg">
<g clip-path="url(#clip0_970_6800)">
<path d="M15.5312 15.0625H10.843L10.1902 13.0062C10.5039 12.8772 10.8056 12.7207 11.0919 12.5387C11.2838 13.0872 11.8062 13.4819 12.4194 13.4819C13.1948 13.4819 13.8257 12.8511 13.8257 12.0757C13.8257 11.4626 13.4312 10.9402 12.8828 10.7482C13.239 10.1884 13.4955 9.57105 13.641 8.92366C13.831 9.01527 14.0392 9.06272 14.25 9.06247C15.0254 9.06247 15.6563 8.43162 15.6563 7.65622C15.6563 6.88081 15.0254 6.24997 14.25 6.24997C14.0391 6.24971 13.8309 6.29718 13.641 6.38881C13.4955 5.74146 13.239 5.12418 12.8829 4.56431C13.0828 4.49489 13.2644 4.38098 13.4138 4.23116C13.9621 3.68288 13.9621 2.79072 13.4138 2.24241C12.8655 1.69409 11.9733 1.69419 11.4251 2.24241C11.2752 2.39187 11.1613 2.5734 11.0919 2.77331C10.532 2.41723 9.91476 2.16075 9.26741 2.01525C9.35905 1.82533 9.40652 1.61713 9.40625 1.40625C9.40625 0.630844 8.77541 0 8 0C7.22459 0 6.59375 0.630844 6.59375 1.40625C6.59375 1.62431 6.64362 1.83094 6.73259 2.01531C6.08521 2.16084 5.46791 2.41733 4.90803 2.77344C4.71603 2.22509 4.19369 1.83059 3.58059 1.83059C2.80519 1.83059 2.17434 2.46144 2.17434 3.23684C2.17434 3.84991 2.56884 4.37228 3.11719 4.56428C2.76106 5.12416 2.50456 5.74148 2.35906 6.38888C2.16912 6.29721 1.9609 6.24974 1.75 6.25C0.974594 6.25 0.34375 6.88084 0.34375 7.65625C0.34375 8.43166 0.974594 9.0625 1.75 9.0625C1.96087 9.06275 2.16907 9.0153 2.359 8.92369C2.50452 9.57108 2.76105 10.1884 3.11722 10.7483C2.56884 10.9403 2.17434 11.4626 2.17434 12.0757C2.17434 12.8511 2.80519 13.4819 3.58059 13.4819C4.19381 13.4819 4.71625 13.0873 4.90816 12.5387C5.19439 12.7207 5.49611 12.8772 5.80981 13.0062L5.157 15.0625H0.46875C0.209875 15.0625 0 15.2724 0 15.5312C0 15.7901 0.209875 16 0.46875 16H15.5312C15.7901 16 16 15.7901 16 15.5312C16 15.2724 15.7901 15.0625 15.5312 15.0625ZM11.7389 10.7323L11.0725 10.0658C11.5034 9.51762 11.7907 8.85163 11.8781 8.125H12.821C12.726 9.10938 12.3354 10.0086 11.7389 10.7323ZM11.7389 4.58022C12.3354 5.30391 12.726 6.20312 12.821 7.1875H11.878C11.7907 6.46088 11.5034 5.79488 11.0725 5.24666L11.7389 4.58022ZM8.46875 2.83525C9.45312 2.93022 10.3523 3.32084 11.076 3.91731L10.4096 4.58375C9.86141 4.15287 9.19541 3.86553 8.46878 3.77822V2.83525H8.46875ZM10.9688 7.65625C10.9688 8.81391 10.3026 9.81875 9.33362 10.3081L8.84769 8.77738C9.18675 8.52038 9.40625 8.11353 9.40625 7.65625C9.40625 6.88084 8.77541 6.25 8 6.25C7.22459 6.25 6.59375 6.88084 6.59375 7.65625C6.59375 8.11353 6.81325 8.52038 7.15231 8.77738L6.66638 10.3081C5.69738 9.81875 5.03125 8.81391 5.03125 7.65625C5.03125 6.01928 6.36303 4.6875 8 4.6875C9.63697 4.6875 10.9688 6.01928 10.9688 7.65625ZM8.44028 10.5923C8.14838 10.6359 7.85162 10.6359 7.55972 10.5923L8 9.20547L8.44028 10.5923ZM8 11.5625C8.24828 11.5625 8.49113 11.5389 8.72666 11.4944L9.012 12.3933C8.67935 12.4643 8.34014 12.5001 8 12.5C7.65985 12.5001 7.32063 12.4643 6.98797 12.3933L7.27331 11.4944C7.51289 11.5397 7.75618 11.5625 8 11.5625ZM7.53125 2.83525V3.77822C6.80463 3.86553 6.13863 4.15287 5.59041 4.58375L4.924 3.91731C5.64769 3.32087 6.54688 2.93022 7.53125 2.83525ZM4.26106 4.58022L4.9275 5.24666C4.49662 5.79488 4.20928 6.46088 4.12197 7.1875H3.179C3.27397 6.20312 3.66463 5.30394 4.26106 4.58022ZM4.26106 10.7323C3.66463 10.0086 3.27397 9.10938 3.179 8.125H4.12197C4.20928 8.85163 4.49662 9.51762 4.9275 10.0658L4.26106 10.7323ZM4.92397 11.3952L5.59037 10.7288C5.83359 10.9199 6.09861 11.0816 6.37991 11.2103L6.09456 12.1092C5.67254 11.9278 5.27841 11.6874 4.92397 11.3952ZM6.14062 15.0625L6.70309 13.2907C7.12012 13.3867 7.55425 13.4375 8 13.4375C8.44575 13.4375 8.87988 13.3867 9.29691 13.2907L9.85938 15.0625H6.14062ZM9.62009 11.2103C9.90139 11.0816 10.1664 10.9199 10.4096 10.7288L11.076 11.3952C10.7216 11.6874 10.3275 11.9278 9.90544 12.1092L9.62009 11.2103Z" fill="white"/>
</g>
<defs>
<clipPath id="clip0_970_6800">
<rect width="16" height="16" fill="white"/>
</clipPath>
</defs>
</svg>
