<svg width="20" height="16" viewBox="0 0 16 6" fill="none" xmlns="http://www.w3.org/2000/svg">
<path d="M14.816 2.07206C12.992 1.59206 11.872 1.65606 11.616 1.56006C11.488 1.52806 11.616 1.56006 9.66401 0.376058C9.47201 0.248058 9.21601 0.184059 8.99201 0.152059C6.78401 -0.103942 4.19201 -0.0399419 2.43201 1.33606C2.33601 1.40006 2.27201 1.46406 2.17601 1.46406L1.15201 1.78406C0.96001 1.84806 0.80001 1.97606 0.73601 2.13606C0.38401 2.74406 0.25601 3.51206 0.44801 4.21606C0.51201 4.50406 0.73601 4.69606 0.99201 4.76006L1.24801 4.82406C1.24801 4.72806 1.21601 4.66406 1.21601 4.56806C1.21601 3.41606 2.14401 2.48806 3.29601 2.48806C4.44801 2.48806 5.37601 3.41606 5.37601 4.56806C5.37601 4.72806 5.34401 4.88806 5.31201 5.01606H11.168C11.136 4.85606 11.104 4.72806 11.104 4.56806C11.104 3.41606 12.032 2.48806 13.184 2.48806C14.336 2.48806 15.264 3.41606 15.264 4.56806C15.264 4.69606 15.264 4.82406 15.232 4.95206C15.488 4.82406 15.648 4.53606 15.648 4.24806V3.25606C15.68 2.68006 15.328 2.20006 14.816 2.07206ZM5.40801 2.04006C5.31201 2.04006 5.21601 2.00806 5.15201 1.91206L4.38401 0.984059C5.08801 0.760059 5.92001 0.632059 6.84801 0.632059L7.23201 2.04006H5.40801ZM10.656 2.00806C10.592 2.04006 10.56 2.04006 10.496 2.04006H7.90401L7.52001 0.664059L8.86401 0.760058C8.99201 0.760058 9.15201 0.824058 9.28001 0.888058L10.848 1.84806L10.656 2.00806Z" fill="white"/>
<path d="M3.29602 5.97607C4.09131 5.97607 4.73602 5.33136 4.73602 4.53607C4.73602 3.74078 4.09131 3.09607 3.29602 3.09607C2.50073 3.09607 1.85602 3.74078 1.85602 4.53607C1.85602 5.33136 2.50073 5.97607 3.29602 5.97607Z" fill="white"/>
<path d="M13.216 5.97607C14.0113 5.97607 14.656 5.33136 14.656 4.53607C14.656 3.74078 14.0113 3.09607 13.216 3.09607C12.4207 3.09607 11.776 3.74078 11.776 4.53607C11.776 5.33136 12.4207 5.97607 13.216 5.97607Z" fill="white"/>
</svg>
