<svg width="12" height="12" viewBox="0 0 12 12" fill="none" xmlns="http://www.w3.org/2000/svg">
<path fill-rule="evenodd" clip-rule="evenodd" d="M2.5 1.36567C2.5 0.591333 6 0 6 0C6 0 9.5 0.591333 9.5 1.36567C9.5 2.398 8.86333 2.83333 8.86333 2.83333H3.13667C3.13667 2.83333 2.5 2.398 2.5 1.36567ZM6.5 1.5C6.5 1.63261 6.44732 1.75979 6.35355 1.85355C6.25979 1.94732 6.13261 2 6 2C5.86739 2 5.74022 1.94732 5.64645 1.85355C5.55268 1.75979 5.5 1.63261 5.5 1.5C5.5 1.36739 5.55268 1.24021 5.64645 1.14645C5.74022 1.05268 5.86739 1 6 1C6.13261 1 6.25979 1.05268 6.35355 1.14645C6.44732 1.24021 6.5 1.36739 6.5 1.5ZM8.60467 4.09333C9.068 3.73167 8.996 3.33333 8.996 3.33333H3.004C3.004 3.33333 2.93167 3.732 3.39533 4.09333C3.30998 4.48276 3.31303 4.88637 3.40426 5.27447C3.49548 5.66256 3.67257 6.02526 3.92248 6.33588C4.17239 6.6465 4.48877 6.89713 4.84833 7.06933C5.2079 7.24153 5.60149 7.33092 6.00017 7.33092C6.39884 7.33092 6.79244 7.24153 7.152 7.06933C7.51157 6.89713 7.82794 6.6465 8.07786 6.33588C8.32777 6.02526 8.50485 5.66256 8.59608 5.27447C8.68731 4.88637 8.69035 4.48276 8.605 4.09333H8.60467ZM6 4.66667C6.907 4.66667 7.541 4.562 7.984 4.41133C8.02005 4.69311 7.99565 4.97933 7.91244 5.25094C7.82924 5.52256 7.68912 5.77333 7.50143 5.98656C7.31373 6.19979 7.08277 6.3706 6.82391 6.4876C6.56505 6.6046 6.28424 6.66512 6.00017 6.66512C5.71609 6.66512 5.43528 6.6046 5.17642 6.4876C4.91756 6.3706 4.6866 6.19979 4.49891 5.98656C4.31121 5.77333 4.1711 5.52256 4.08789 5.25094C4.00468 4.97933 3.98029 4.69311 4.01633 4.41133C4.459 4.562 5.093 4.66667 6 4.66667ZM6.5 8C6.58841 8 6.67319 8.03512 6.7357 8.09763C6.79821 8.16014 6.83333 8.24493 6.83333 8.33333V8.794C6.8333 8.85589 6.81604 8.91654 6.78348 8.96918C6.75093 9.02181 6.70436 9.06434 6.649 9.092L6.5 9.16667L6.69233 10.1283L8.10567 8.00833C8.20233 8.00833 8.29233 8.009 8.37367 8.00967C10.1753 8.42067 12 9.25867 12 10.5193V12H0V10.5193C0 9.25867 1.90433 8.411 3.706 8C3.69967 8.00133 3.76733 8.00233 3.891 8.00333L5.319 10.145L5.5 9.16667L5.351 9.092C5.29564 9.06434 5.24907 9.02181 5.21652 8.96918C5.18396 8.91654 5.1667 8.85589 5.16667 8.794V8.33333C5.16667 8.24493 5.20179 8.16014 5.2643 8.09763C5.32681 8.03512 5.41159 8 5.5 8H6.5ZM9.66667 9.77767C9.66667 9.77767 9.22233 9.55567 9 9.33333C8.77767 9.55567 8.33333 9.77767 8.33333 9.77767C8.33333 9.77767 8.566 10.6667 9 10.6667C9.434 10.6667 9.66667 9.77767 9.66667 9.77767Z" fill="white"/>
</svg>
