<svg width="16" height="16" viewBox="0 0 16 16" fill="none" xmlns="http://www.w3.org/2000/svg">
<path d="M14.9792 7.85916V2.83022C14.9792 1.60697 13.9841 0.611816 12.7608 0.611816H3.17537C1.95212 0.611816 0.956969 1.607 0.956969 2.83022V7.92404C0.364469 8.54347 0 9.38276 0 10.3056V14.1188C0 14.8188 0.569469 15.3883 1.26947 15.3883C1.96944 15.3883 2.53891 14.8188 2.53891 14.1188V13.725H13.4611V14.1188C13.4611 14.8188 14.0306 15.3883 14.7306 15.3883C15.4305 15.3883 16 14.8188 16 14.1188V10.3056C16 9.3501 15.6093 8.48422 14.9792 7.85916ZM3.17537 1.23682H12.7608C13.6395 1.23682 14.3542 1.95163 14.3542 2.83022V7.36732C14.1616 7.24865 13.9577 7.1493 13.7455 7.07072V6.03154C13.7455 5.11029 12.996 4.36079 12.0748 4.36079H9.35828C8.79903 4.36079 8.30344 4.63725 8.00003 5.06041C7.69663 4.63725 7.20103 4.36079 6.64178 4.36079H3.92528C3.00403 4.36079 2.25453 5.11025 2.25453 6.03154V7.07072C2.01871 7.15805 1.79319 7.27099 1.582 7.40751V2.83022C1.58197 1.95163 2.29675 1.23682 3.17537 1.23682ZM3.44791 6.85766C3.25431 6.85766 3.06444 6.87397 2.87947 6.90479V6.03154C2.87947 5.45491 3.34859 4.98579 3.92522 4.98579H6.64172C7.21834 4.98579 7.68747 5.45491 7.68747 6.03154V6.85769H3.44791V6.85766ZM8.3125 6.0315C8.3125 5.45488 8.78162 4.98575 9.35825 4.98575H12.0747C12.6514 4.98575 13.1205 5.45488 13.1205 6.0315V6.90476C12.9326 6.87342 12.7425 6.85766 12.5521 6.85763H8.3125V6.0315ZM3.44791 7.48266H12.5521C14.1086 7.48266 15.375 8.74901 15.375 10.3056V11.2327H12.2407C12.0681 11.2327 11.9282 11.3726 11.9282 11.5452C11.9282 11.7177 12.0681 11.8577 12.2407 11.8577H15.375V13.1H0.625V11.8577H9.11572C9.28831 11.8577 9.42822 11.7177 9.42822 11.5452C9.42822 11.3726 9.28831 11.2327 9.11572 11.2327H0.625V10.3056C0.625 8.74901 1.89134 7.48266 3.44791 7.48266ZM1.91391 14.1188C1.91391 14.4741 1.62481 14.7633 1.26947 14.7633C0.914125 14.7633 0.625 14.4741 0.625 14.1188V13.725H1.91391V14.1188ZM14.7305 14.7633C14.3752 14.7633 14.0861 14.4741 14.0861 14.1188V13.725H15.375V14.1188C15.375 14.4741 15.0859 14.7633 14.7305 14.7633Z" fill="white"/>
<path d="M10.6781 11.8579C10.8507 11.8579 10.9907 11.7179 10.9907 11.5452C10.9907 11.3725 10.8507 11.2325 10.6781 11.2325C10.5054 11.2325 10.3654 11.3725 10.3654 11.5452C10.3654 11.7179 10.5054 11.8579 10.6781 11.8579Z" fill="white"/>
</svg>
